<svg width="36" height="36" viewBox="0 0 36 36" fill="none" xmlns="http://www.w3.org/2000/svg">
<rect width="36" height="36" rx="18" fill="#34C631"/>
<path d="M25.0854 10.9101C24.164 9.98398 23.0665 9.24972 21.8569 8.75011C20.6473 8.25049 19.3499 7.99552 18.0402 8.00006C12.5528 8.00006 8.0804 12.45 8.0804 17.91C8.0804 19.66 8.54271 21.36 9.40704 22.86L8 28L13.2764 26.62C14.7337 27.41 16.3719 27.83 18.0402 27.83C23.5276 27.83 28 23.38 28 17.92C28 15.27 26.9648 12.78 25.0854 10.9101ZM18.0402 26.15C16.5528 26.15 15.0955 25.75 13.8191 25L13.5176 24.82L10.3819 25.64L11.2161 22.6L11.0151 22.29C10.1887 20.977 9.74989 19.4593 9.74874 17.91C9.74874 13.37 13.4673 9.67005 18.0301 9.67005C20.2412 9.67005 22.3216 10.5301 23.8794 12.09C24.6507 12.854 25.262 13.7627 25.6778 14.7635C26.0936 15.7642 26.3056 16.8371 26.3015 17.92C26.3216 22.46 22.603 26.15 18.0402 26.15ZM22.5829 19.99C22.3317 19.87 21.1055 19.27 20.8844 19.18C20.6533 19.1 20.4925 19.06 20.3216 19.3C20.1508 19.55 19.6784 20.11 19.5377 20.27C19.397 20.44 19.2462 20.46 18.995 20.33C18.7437 20.21 17.9397 19.94 16.995 19.1C16.2513 18.44 15.7588 17.63 15.608 17.38C15.4673 17.13 15.5879 17 15.7186 16.87C15.8291 16.76 15.9698 16.58 16.0905 16.44C16.2111 16.3 16.2613 16.19 16.3417 16.03C16.4221 15.86 16.3819 15.72 16.3216 15.6C16.2613 15.48 15.7588 14.26 15.5578 13.76C15.3568 13.28 15.1457 13.34 14.995 13.33H14.5126C14.3417 13.33 14.0804 13.39 13.8492 13.64C13.6281 13.89 12.9849 14.49 12.9849 15.71C12.9849 16.93 13.8794 18.11 14 18.27C14.1206 18.44 15.7588 20.94 18.2513 22.01C18.8442 22.27 19.3065 22.42 19.6683 22.53C20.2613 22.72 20.804 22.69 21.2362 22.63C21.7186 22.56 22.7136 22.03 22.9146 21.45C23.1256 20.87 23.1256 20.38 23.0553 20.27C22.9849 20.16 22.8342 20.11 22.5829 19.99Z" fill="#FFFCFE"/>
</svg>
