<svg width="33" height="32" viewBox="0 0 33 32" fill="none" xmlns="http://www.w3.org/2000/svg">
<g clip-path="url(#clip0_56_18)">
<path d="M16.5 0C12.2575 0 8.185 1.68675 5.1875 4.68625C2.18691 7.68694 0.500831 11.7565 0.5 16C0.5 20.2417 2.1875 24.3142 5.1875 27.3137C8.185 30.3132 12.2575 32 16.5 32C20.7425 32 24.815 30.3132 27.8125 27.3137C30.8125 24.3142 32.5 20.2417 32.5 16C32.5 11.7583 30.8125 7.68575 27.8125 4.68625C24.815 1.68675 20.7425 0 16.5 0Z" fill="url(#paint0_linear_56_18)"/>
<path d="M7.7425 15.831C12.4075 13.799 15.5175 12.4592 17.0725 11.812C21.5175 9.96374 22.44 9.64274 23.0425 9.63187C23.175 9.62974 23.47 9.66249 23.6625 9.81812C23.8225 9.94937 23.8675 10.1269 23.89 10.2515C23.91 10.376 23.9375 10.6597 23.915 10.8812C23.675 13.4112 22.6325 19.5507 22.1025 22.3845C21.88 23.5835 21.4375 23.9855 21.01 24.0247C20.08 24.1102 19.375 23.4107 18.475 22.821C17.0675 21.8977 16.2725 21.3232 14.905 20.4225C13.325 19.3815 14.35 18.8092 15.25 17.8742C15.485 17.6295 19.58 13.9057 19.6575 13.568C19.6675 13.5257 19.6775 13.3682 19.5825 13.2852C19.49 13.202 19.3525 13.2305 19.2525 13.253C19.11 13.285 16.8625 14.772 12.5025 17.7137C11.865 18.1522 11.2875 18.366 10.7675 18.3547C10.1975 18.3425 9.0975 18.0317 8.28 17.7662C7.28 17.4405 6.4825 17.2682 6.5525 16.715C6.5875 16.427 6.985 16.1322 7.7425 15.831Z" fill="white"/>
</g>
<defs>
<linearGradient id="paint0_linear_56_18" x1="1600.5" y1="0" x2="1600.5" y2="3200" gradientUnits="userSpaceOnUse">
<stop stop-color="#2AABEE"/>
<stop offset="1" stop-color="#229ED9"/>
</linearGradient>
<clipPath id="clip0_56_18">
<rect width="32" height="32" fill="white" transform="translate(0.5)"/>
</clipPath>
</defs>
</svg>
