<svg width="32" height="32" viewBox="0 0 32 32" fill="none" xmlns="http://www.w3.org/2000/svg">
<rect width="32" height="32" rx="16" fill="white"/>
<path d="M25.0526 10.491C24.6868 10.8688 24.3318 11.2354 24.3211 11.602C24.2888 11.9575 24.6546 12.3241 24.9988 12.6685C25.5152 13.224 26.0209 13.7239 25.9993 14.2683C25.9778 14.8127 25.4292 15.3793 24.8805 15.9347L20.4374 20.5341L18.9097 18.9565L23.4819 14.2461L22.4492 13.1796L20.9215 14.746L16.8872 10.5799L21.0183 6.32495C21.4379 5.89168 22.1372 5.89168 22.5352 6.32495L25.0526 8.92459C25.4722 9.33565 25.4722 10.0578 25.0526 10.491ZM6 21.8339L16.2848 11.2021L20.3191 15.3681L10.0343 26H6V21.8339Z" fill="black"/>
</svg>
