<svg width="32" height="32" viewBox="0 0 32 32" fill="none" xmlns="http://www.w3.org/2000/svg">
<rect width="32" height="32" rx="16" fill="white"/>
<path d="M26 8.39727V20.3991C25.9993 20.513 25.9733 20.6255 25.9238 20.729C25.8742 20.8325 25.8022 20.9246 25.7125 20.9992C24.1208 22.3224 22.599 22.7995 21.1479 22.7995C19.1781 22.7995 17.3385 21.9254 15.6271 21.1142C12.8615 19.799 10.4573 18.6599 7.66667 20.7762V25.1999C7.66667 25.4121 7.57887 25.6156 7.42259 25.7656C7.26631 25.9157 7.05435 26 6.83333 26C6.61232 26 6.40036 25.9157 6.24408 25.7656C6.0878 25.6156 6 25.4121 6 25.1999V8.39727C6.0008 8.28328 6.02696 8.17077 6.07672 8.06728C6.12648 7.96378 6.1987 7.87169 6.28854 7.79718C10.0385 4.67869 13.4042 6.27594 16.3708 7.68516C19.2292 9.04337 21.7073 10.2176 24.6208 7.79718C24.7413 7.69695 24.8891 7.63197 25.0468 7.60996C25.2045 7.58795 25.3655 7.60982 25.5107 7.67298C25.6558 7.73614 25.7791 7.83794 25.8658 7.96632C25.9525 8.09469 25.9991 8.24425 26 8.39727Z" fill="black"/>
</svg>
