<svg width="18" height="18" viewBox="0 0 18 18" fill="none" xmlns="http://www.w3.org/2000/svg">
<path d="M13.725 4.2825C13.6556 4.21297 13.5732 4.15781 13.4825 4.12018C13.3917 4.08254 13.2945 4.06317 13.1962 4.06317C13.098 4.06317 13.0008 4.08254 12.91 4.12018C12.8193 4.15781 12.7369 4.21297 12.6675 4.2825L9 7.9425L5.3325 4.275C5.26306 4.20556 5.18063 4.15048 5.08991 4.1129C4.99918 4.07533 4.90195 4.05598 4.80375 4.05598C4.70555 4.05598 4.60832 4.07533 4.51759 4.1129C4.42687 4.15048 4.34444 4.20556 4.275 4.275C4.20556 4.34444 4.15048 4.42687 4.1129 4.51759C4.07533 4.60832 4.05598 4.70555 4.05598 4.80375C4.05598 4.90195 4.07533 4.99918 4.1129 5.08991C4.15048 5.18063 4.20556 5.26306 4.275 5.3325L7.9425 9L4.275 12.6675C4.20556 12.7369 4.15048 12.8194 4.1129 12.9101C4.07533 13.0008 4.05598 13.0981 4.05598 13.1962C4.05598 13.2944 4.07533 13.3917 4.1129 13.4824C4.15048 13.5731 4.20556 13.6556 4.275 13.725C4.34444 13.7944 4.42687 13.8495 4.51759 13.8871C4.60832 13.9247 4.70555 13.944 4.80375 13.944C4.90195 13.944 4.99918 13.9247 5.08991 13.8871C5.18063 13.8495 5.26306 13.7944 5.3325 13.725L9 10.0575L12.6675 13.725C12.7369 13.7944 12.8194 13.8495 12.9101 13.8871C13.0008 13.9247 13.0981 13.944 13.1962 13.944C13.2944 13.944 13.3917 13.9247 13.4824 13.8871C13.5731 13.8495 13.6556 13.7944 13.725 13.725C13.7944 13.6556 13.8495 13.5731 13.8871 13.4824C13.9247 13.3917 13.944 13.2944 13.944 13.1962C13.944 13.0981 13.9247 13.0008 13.8871 12.9101C13.8495 12.8194 13.7944 12.7369 13.725 12.6675L10.0575 9L13.725 5.3325C14.01 5.0475 14.01 4.5675 13.725 4.2825Z" fill="#FFFCFE"/>
</svg>
