<svg width="33" height="32" viewBox="0 0 33 32" fill="none" xmlns="http://www.w3.org/2000/svg">
<rect x="0.5" width="32" height="32" rx="16" fill="url(#paint0_angular_56_9)"/>
<path d="M12.3 6H20.7C23.9 6 26.5 8.6 26.5 11.8V20.2C26.5 21.7383 25.8889 23.2135 24.8012 24.3012C23.7135 25.3889 22.2383 26 20.7 26H12.3C9.1 26 6.5 23.4 6.5 20.2V11.8C6.5 10.2617 7.11107 8.78649 8.19878 7.69878C9.28649 6.61107 10.7617 6 12.3 6ZM12.1 8C11.1452 8 10.2295 8.37928 9.55442 9.05442C8.87928 9.72955 8.5 10.6452 8.5 11.6V20.4C8.5 22.39 10.11 24 12.1 24H20.9C21.8548 24 22.7705 23.6207 23.4456 22.9456C24.1207 22.2705 24.5 21.3548 24.5 20.4V11.6C24.5 9.61 22.89 8 20.9 8H12.1ZM21.75 9.5C22.0815 9.5 22.3995 9.6317 22.6339 9.86612C22.8683 10.1005 23 10.4185 23 10.75C23 11.0815 22.8683 11.3995 22.6339 11.6339C22.3995 11.8683 22.0815 12 21.75 12C21.4185 12 21.1005 11.8683 20.8661 11.6339C20.6317 11.3995 20.5 11.0815 20.5 10.75C20.5 10.4185 20.6317 10.1005 20.8661 9.86612C21.1005 9.6317 21.4185 9.5 21.75 9.5ZM16.5 11C17.8261 11 19.0979 11.5268 20.0355 12.4645C20.9732 13.4021 21.5 14.6739 21.5 16C21.5 17.3261 20.9732 18.5979 20.0355 19.5355C19.0979 20.4732 17.8261 21 16.5 21C15.1739 21 13.9021 20.4732 12.9645 19.5355C12.0268 18.5979 11.5 17.3261 11.5 16C11.5 14.6739 12.0268 13.4021 12.9645 12.4645C13.9021 11.5268 15.1739 11 16.5 11ZM16.5 13C15.7044 13 14.9413 13.3161 14.3787 13.8787C13.8161 14.4413 13.5 15.2044 13.5 16C13.5 16.7956 13.8161 17.5587 14.3787 18.1213C14.9413 18.6839 15.7044 19 16.5 19C17.2956 19 18.0587 18.6839 18.6213 18.1213C19.1839 17.5587 19.5 16.7956 19.5 16C19.5 15.2044 19.1839 14.4413 18.6213 13.8787C18.0587 13.3161 17.2956 13 16.5 13Z" fill="#FFFCFE"/>
<defs>
<radialGradient id="paint0_angular_56_9" cx="0" cy="0" r="1" gradientUnits="userSpaceOnUse" gradientTransform="translate(16.5 16) rotate(-57.3808) scale(14.8408 15.8973)">
<stop stop-color="#930AC4"/>
<stop offset="0.513785" stop-color="#FF9900"/>
<stop offset="1" stop-color="#5200FF"/>
</radialGradient>
</defs>
</svg>
